<?xml version="1.0" encoding="UTF-8"?>
<svg id="Layer_1" data-name="Layer 1" xmlns="http://www.w3.org/2000/svg" viewBox="0 0 754.78 416.96">
  <defs>
    <style>
      .cls-1 {
        fill: #fffffb;
        stroke-width: 0px;
      }
    </style>
  </defs>
  <g id="Found_Logo" data-name="Found Logo">
    <path id="Path_592" data-name="Path 592" class="cls-1" d="M754.77,189.59c-13.99,4.59-27.99,9.19-42.02,13.78-4.17,1.36-8.36,2.63-12.53,4-.96.31-1.42.06-1.79-.83-1.62-3.59-2.54-7.45-2.71-11.38.12-2.05-.2-4.11-.94-6.03-.19-.37-.41-.73-.65-1.07-.3.36-.55.77-.74,1.2-.57,1.95-1.13,3.9-1.61,5.88-3.2,14.64-13.75,26.57-27.88,31.55-8.53,3.43-17.76,4.72-26.9,3.76-4.54-.42-8.99-1.58-13.16-3.44-8.73-3.73-16.48-9.43-22.63-16.67-9.47-11.24-16.62-24.24-21.04-38.25-1.95-5.96-3.24-12.12-3.85-18.36-.56-3.89-.78-7.83-.66-11.76.55-10.67,2.99-21.16,7.2-30.98,3.73-8.12,10.08-14.74,18.04-18.79,7.88-4.31,16.48-7.14,25.37-8.35,1.41-.19,2.66-.83,4.13-.92,7.59-.51,15.18,1.09,21.92,4.62,2.39,1.22,4.79,2.44,7.21,3.61.38.19,1.03.36,1.29.18.83-.57-.04-1.13-.32-1.53-.88-1.3-1.89-2.52-2.84-3.78-3.84-5.39-6.68-11.43-8.38-17.83-2.75-9.32-5.65-18.58-8.7-27.79-1.97-5.94-3.79-11.94-5.63-17.93-.78-2.55-.43-3.36,2.21-4.16,13.22-3.97,26.16-8.85,39.4-12.78,5.29-1.23,10.42-3.09,15.27-5.53h.95c1,3.61,1.87,7.26,3.04,10.81,6.24,18.9,12.54,37.78,18.77,56.68,8.83,26.79,17.64,53.59,26.42,80.39,3.17,9.68,6.15,19.42,9.42,29.07.95,4.07,2.4,8,4.34,11.69l-.02.94ZM655.52,119.9c-5.59-.35-11.11,1.41-15.46,4.94-6.71,4.74-10.52,12.6-10.08,20.8.21,5.52,1.79,10.9,4.59,15.66,4.22,9.16,13.65,14.78,23.71,14.13,13.18.11,23.95-10.48,24.06-23.66,0-.91-.04-1.83-.13-2.73-.27-5.51-1.88-10.88-4.68-15.63-4.87-8.06-11.07-14.28-21.99-13.5"/>
    <path id="Path_593" data-name="Path 593" class="cls-1" d="M184.38,375.25c-19.15,1.37-37.82-6.39-50.37-20.92-8.38-10.09-14.43-21.9-17.73-34.59-1.21-4.38-2.04-8.86-2.5-13.38-.51-3.26-.73-6.56-.67-9.86.33-15.57,6.41-30.47,17.09-41.82,9.9-10.03,22-17.62,35.34-22.17,7.99-2.76,16.18-4.93,24.49-6.49,1.1-.16,2.22-.21,3.33-.16,3.81-.04,7.62-.07,11.43-.09,13.02-.15,25.73,3.98,36.17,11.77,6.62,4.94,12.27,11.07,16.65,18.07,5.64,9.46,9.77,19.74,12.24,30.48.65,2.91,1.09,5.86,1.34,8.83-.05,2.05.2,4.09.75,6.06.29,1.08.32,2.21.1,3.3-.46,9.09-2.54,18.03-6.16,26.38-2.45,5.14-5.6,9.91-9.37,14.18-10.09,10.98-22.82,19.2-36.98,23.88-8.43,2.95-17.11,5.11-25.94,6.45-3.05.28-6.12.31-9.17.09M173.87,298.81c-.12,5.73,1.84,11.31,5.53,15.7,4.63,5.65,12.23,7.9,19.19,5.67,8.32-2.18,13.7-10.23,12.54-18.75-.31-3.77-1.43-7.43-3.28-10.72-2.97-6.34-9.49-10.25-16.49-9.85-9.79.15-17.62,8.18-17.51,17.97"/>
    <path id="Path_594" data-name="Path 594" class="cls-1" d="M498.61,177.03c-6.19-.29-11.68,3.96-12.94,10.03-.9,3.34-.94,6.85-.12,10.21,2.1,9.04,5.52,17.64,8.31,26.44,3.27,10.31,6.74,20.56,10.11,30.85,1.41,4.31,2.79,8.64,4.18,12.95.84,2.61.78,2.88-1.81,3.75-7.44,2.5-14.9,4.93-22.36,7.37-9.84,3.21-19.7,6.37-29.52,9.6-1.13.37-1.59.33-2-.95-3.28-10.3-6.62-20.59-10.01-30.86-3.78-11.47-7.64-22.91-11.41-34.37-6.94-21.15-13.87-42.3-20.78-63.47-.38-1.13-.98-1.79.81-2.36,18.95-6.14,37.88-12.35,56.78-18.62.95-.31,1.48-.2,1.66.86,1.11,4.09,1.77,8.29,1.97,12.53-.12.63-.09,1.27.1,1.88.88,1.64.08,4.71,1.7,4.96,1.96.31,2.05-2.67,2.91-4.2.81-1.7,1.49-3.46,2.05-5.26,2.74-7.44,7.11-14.17,12.79-19.7,2.4-2.31,5.25-4.1,8.38-5.27,5.71-2.21,11.67-3.71,17.74-4.47,9.28-1.01,18.6,1.49,26.13,7.01,6.13,4.23,11.39,9.61,15.49,15.84,2.2,3.46,3.93,7.19,5.16,11.1,7.22,21.71,14.37,43.45,21.46,65.22,2.48,7.59,4.75,15.26,7.37,22.81.6,1.74.03,2.19-1.26,2.62-4.77,1.58-9.49,3.32-14.31,4.7-11.77,3.37-23.25,7.61-34.91,11.34-4.64,1.48-4.66,1.57-6.24-3.14-7.15-21.58-14.27-43.17-21.37-64.76-1.19-3.77-3.19-7.23-5.87-10.14-2.46-3.05-6.25-4.72-10.16-4.47"/>
    <path id="Path_595" data-name="Path 595" class="cls-1" d="M341.84,324.69c-10.64.74-21.3-1.3-30.91-5.91-4.33-1.95-8.36-4.51-11.96-7.6-3.89-3.22-7.37-6.9-10.37-10.96-3.13-4.55-5.53-9.56-7.1-14.85-8.08-24.9-16.33-49.74-24.54-74.6-1.29-3.91-1.8-3.47,2.78-4.98,9.68-3.2,19.37-6.33,29.06-9.5,7.02-2.27,14.04-4.54,21.02-6.94,1.02-.35,1.32-.23,1.62.69.99,2.97,2.06,5.91,3.05,8.89,4.86,14.74,9.7,29.49,14.53,44.23,1.75,5.36,3.4,10.74,5.1,16.13,1.06,3.48,2.73,6.75,4.93,9.64,3.39,4.61,9.23,6.71,14.78,5.32,5.33-.94,9.56-5.03,10.67-10.33.92-4.03.74-8.23-.51-12.18-7-22.12-14.34-44.12-21.71-66.12-.45-1.34-.9-2.67-1.29-4.03-.45-1.05.03-2.27,1.08-2.73.16-.07.32-.11.49-.14,4.18-1.37,8.31-2.84,12.48-4.23,8.19-2.7,16.41-5.35,24.62-8.03,4.32-1.41,8.64-2.84,12.97-4.19,2.43-.76,2.78-.57,3.61,1.92,4.73,14.28,9.46,28.57,14.18,42.86,3.78,11.46,7.54,22.92,11.27,34.39,3.42,11.23,3.06,23.28-1.01,34.29-3.16,9.15-8.47,17.4-15.5,24.06-8.56,8.47-18.94,14.88-30.35,18.71-7.68,2.71-15.58,4.75-23.61,6.11-3.1.28-6.23.31-9.33.09"/>
    <path id="Path_596" data-name="Path 596" class="cls-1" d="M62.95,190.56c9.58.23,7.94-1.28,10.74,7.03,3.4,10.09,6.5,20.29,9.83,30.41.4,1.22.53,1.56-.93,1.66-3.46.09-6.84,1.13-9.75,3.02-3.09,2.02-4.95,5.46-4.94,9.14-.02,4.41.88,8.78,2.64,12.83.57,1.59,1.25,1.62,2.84,1.06,4.87-1.74,9.83-3.17,14.74-4.71,2.51-.78,2.89-.64,3.74,1.97,4.19,12.81,8.34,25.63,12.48,38.45.91,2.84.91,2.88-1.97,3.83-4.31,1.44-8.65,2.78-12.96,4.22-3.7,1.23-3.71,1.26-2.55,4.82.97,2.98,2.06,5.93,2.97,8.93,6.27,20.54,13.27,40.83,20.06,61.21,2.43,7.28,4.61,14.64,6.91,21.96.77,2.46.66,2.78-1.75,3.58-4.46,1.49-8.95,2.9-13.43,4.34-12.53,4.04-25.07,8.09-37.6,12.13-2.7.87-2.65.89-3.52-1.75-4.73-14.44-9.47-28.88-14.23-43.32-2.27-6.85-4.52-13.7-6.75-20.55-3.13-9.52-6.27-19.04-9.42-28.56-1.02-3.08-1.07-3.09-4.17-2.06-3.1,1.03-6.24,2.16-9.35,3.2-2.35.78-2.64.7-3.44-1.67-2.21-6.54-4.34-13.09-6.46-19.66-2.16-6.71-4.15-13.47-6.46-20.13-.57-1.58.06-1.91,1.09-2.27,3.27-1.13,6.56-2.19,9.83-3.29.74-.25,1.46-.57,2.21-.81.92-.29,1.06-.69.7-1.7-1.34-3.67-2.48-7.42-3.75-11.12-1.7-5.22-2.68-10.65-2.9-16.13-.38-6.92.76-13.84,3.32-20.29,6.81-17.21,21.71-29.92,39.77-33.93,4.03-1.31,8.24-1.95,12.48-1.87"/>
  </g>
</svg>